<?xml version="1.0" standalone="no"?>
<!DOCTYPE svg PUBLIC "-//W3C//DTD SVG 20010904//EN"
 "http://www.w3.org/TR/2001/REC-SVG-20010904/DTD/svg10.dtd">
<svg version="1.0" xmlns="http://www.w3.org/2000/svg"
 width="512.000000pt" height="512.000000pt" viewBox="0 0 512.000000 512.000000"
 preserveAspectRatio="xMidYMid meet">

<g transform="translate(0.000000,512.000000) scale(0.100000,-0.100000)"
fill="#000000" stroke="none">
<path d="M2520 4511 l0 -209 201 -116 c111 -64 208 -116 215 -116 16 0 398
189 393 194 -16 14 -790 456 -798 456 -8 0 -11 -68 -11 -209z"/>
<path d="M1725 4470 c-8 -12 -30 -978 -23 -986 3 -3 58 -16 121 -28 658 -134
1190 -606 1399 -1240 21 -65 37 -123 36 -128 -2 -5 -20 20 -41 55 -92 158
-266 358 -417 480 -460 371 -1060 502 -1635 356 -98 -25 -522 -206 -529 -226
-4 -8 -4 -19 -1 -24 4 -5 208 -153 455 -329 247 -177 452 -325 455 -329 3 -5
-33 -271 -80 -592 -82 -572 -86 -609 -54 -609 4 0 246 117 536 261 430 212
531 258 545 250 16 -10 150 -121 761 -633 104 -87 195 -158 202 -158 8 0 17 5
21 12 4 7 18 291 31 632 13 341 27 624 31 627 4 4 232 105 507 225 275 119
506 223 514 230 7 7 11 19 9 26 -4 10 -823 603 -909 659 -8 5 8 128 127 938
32 217 34 245 21 259 -14 13 -63 -9 -446 -198 -237 -118 -431 -217 -431 -221
0 -4 18 -51 39 -105 64 -163 104 -331 125 -533 7 -67 -2 -59 -46 44 -62 147
-199 359 -304 472 -65 70 -975 823 -994 823 -11 0 -22 -4 -25 -10z"/>
<path d="M1104 3820 c-181 -105 -336 -198 -344 -206 -22 -22 -29 -524 -7 -524
13 0 312 128 347 148 10 6 17 32 20 86 l5 78 160 92 160 92 3 212 c1 117 -1
212 -6 212 -4 0 -156 -86 -338 -190z"/>
<path d="M3995 3663 c-26 -186 -27 -198 -10 -208 9 -5 37 -22 61 -37 l44 -28
0 -197 0 -198 176 -125 c97 -69 180 -126 185 -128 5 -2 9 170 9 422 l0 425
-22 24 c-17 19 -399 247 -412 247 -2 0 -15 -89 -31 -197z"/>
<path d="M746 2332 c-3 -3 -6 -190 -6 -416 0 -310 3 -417 13 -436 8 -17 80
-65 216 -143 111 -66 204 -117 206 -115 5 5 55 342 55 371 0 17 -13 30 -52 53
l-53 30 -5 201 -5 202 -182 129 c-100 72 -184 128 -187 124z"/>
<path d="M4263 1913 l-173 -76 0 -77 0 -77 -159 -92 -159 -91 -4 -213 c-3
-116 -4 -214 -2 -216 6 -7 639 364 667 391 l27 26 0 251 c0 195 -3 251 -12
250 -7 0 -91 -35 -185 -76z"/>
<path d="M2066 914 c-108 -55 -185 -99 -180 -104 8 -8 709 -415 772 -449 l22
-12 0 214 0 214 -202 117 c-111 64 -206 116 -212 115 -6 0 -96 -43 -200 -95z"/>
</g>
</svg>
